<svg id="visual" viewBox="0 0 900 600" width="900" height="600" xmlns="http://www.w3.org/2000/svg" xmlns:xlink="http://www.w3.org/1999/xlink" version="1.1"><path d="M0 127L50 143C100 159 200 191 300 197C400 203 500 183 600 184C700 185 800 207 850 218L900 229L900 0L850 0C800 0 700 0 600 0C500 0 400 0 300 0C200 0 100 0 50 0L0 0Z" fill="#618bcc"></path><path d="M0 229L50 247C100 265 200 301 300 318C400 335 500 333 600 326C700 319 800 307 850 301L900 295L900 227L850 216C800 205 700 183 600 182C500 181 400 201 300 195C200 189 100 157 50 141L0 125Z" fill="#3968bf"></path><path d="M0 517L50 512C100 507 200 497 300 489C400 481 500 475 600 485C700 495 800 521 850 534L900 547L900 293L850 299C800 305 700 317 600 324C500 331 400 333 300 316C200 299 100 263 50 245L0 227Z" fill="#1644ae"></path><path d="M0 601L50 601C100 601 200 601 300 601C400 601 500 601 600 601C700 601 800 601 850 601L900 601L900 545L850 532C800 519 700 493 600 483C500 473 400 479 300 487C200 495 100 505 50 510L0 515Z" fill="#001b98"></path></svg>